<svg width="67" height="69" viewBox="0 0 67 69" fill="none" xmlns="http://www.w3.org/2000/svg">
<path fill-rule="evenodd" clip-rule="evenodd" d="M1.10156 8.95703C0.493652 8.95703 0 8.45508 0 7.8374V1.11963C0 0.501465 0.493652 0 1.10205 0H5.50879C6.11719 0 6.61035 0.501465 6.61035 1.11963V7.8374C6.61035 8.45508 6.11719 8.95703 5.50879 8.95703H1.10156ZM4.40723 2.23926H2.20361V6.71777H4.40723V2.23926Z" transform="translate(24.6793 34.998)" fill="white"/>
<path fill-rule="evenodd" clip-rule="evenodd" d="M5.50879 8.95703H1.10156C0.493652 8.95703 0 8.45508 0 7.8374V1.11963C0 0.501465 0.493652 0 1.10156 0H5.50879C6.1167 0 6.61035 0.501465 6.61035 1.11963V7.8374C6.61035 8.45508 6.1167 8.95703 5.50879 8.95703ZM4.40674 2.23926H2.20312V6.71777H4.40674V2.23926Z" transform="translate(24.6793 21.0396)" fill="white"/>
<path d="M1.66927 21.1125L17.6282 11.382L33.5872 21.1125C33.7645 21.2212 33.9607 21.2726 34.1534 21.2726C34.528 21.2726 34.8927 21.0789 35.0988 20.7295C35.4128 20.1988 35.2431 19.5114 34.722 19.1934L18.7299 9.44279V2.23927H24.2388V4.47854H20.9335C20.3254 4.47854 19.8318 4.98013 19.8318 5.59811C19.8318 6.21608 20.3254 6.71767 20.9335 6.71767H25.3405C25.9486 6.71767 26.4422 6.21608 26.4422 5.59811V1.11957C26.4422 0.501595 25.9486 0 25.3405 0H17.6282C17.0201 0 16.5265 0.501595 16.5265 1.11957V9.44279L0.534497 19.1935C0.0133988 19.5114 -0.156255 20.1989 0.157747 20.7297C0.469424 21.2592 1.14804 21.4316 1.66927 21.1125Z" transform="translate(15.8654 0.973694)" fill="white"/>
<path d="M5.50884 8.95681C6.11696 8.95681 6.61056 8.45522 6.61056 7.83724V1.11957C6.61056 0.501595 6.11696 0 5.50884 0H1.10172C0.493597 0 0 0.501595 0 1.11957V3.35871C0 3.97668 0.493597 4.47827 1.10172 4.47827C1.70984 4.47827 2.20343 3.97668 2.20343 3.35871V2.23914H4.40699V7.83724C4.40699 8.45522 4.90059 8.95681 5.50884 8.95681Z" transform="translate(7.05127 34.998)" fill="white"/>
<path d="M2.20343 33.5884V1.11957C2.20343 0.501595 1.70984 0 1.10172 0C0.493597 0 0 0.501595 0 1.11957V33.5884C0 34.2063 0.493597 34.7079 1.10172 34.7079C1.70984 34.7079 2.20343 34.2063 2.20343 33.5884Z" transform="translate(17.6281 24.5292)" fill="white"/>
<path fill-rule="evenodd" clip-rule="evenodd" d="M1.10156 15.6743H38.5615C39.1694 15.6743 39.6631 15.1729 39.6631 14.5547C39.6631 13.937 39.1694 13.4351 38.5615 13.4351H28.6455V2.23926H29.7476C30.3555 2.23926 30.8491 1.7373 30.8491 1.11963C30.8491 0.501465 30.3555 0 29.7476 0H9.91602C9.30762 0 8.81396 0.501465 8.81396 1.11963C8.81396 1.7373 9.30762 2.23926 9.91602 2.23926H11.0176V13.4351H1.10156C0.493652 13.4351 0 13.9365 0 14.5547C0 15.1729 0.493652 15.6743 1.10156 15.6743ZM20.9331 8.95703C21.541 8.95703 22.0347 8.45508 22.0347 7.8374C22.0347 7.21924 21.541 6.71777 20.9331 6.71777V2.23926H26.4419V13.4351H20.9331V8.95703ZM18.73 2.23877H13.2212V13.4351H18.73V8.95654C18.1221 8.95654 17.6284 8.45459 17.6284 7.83691C17.6284 7.21875 18.1221 6.71729 18.73 6.71729V2.23877Z" transform="translate(13.2213 48.0848)" fill="white"/>
<path fill-rule="evenodd" clip-rule="evenodd" d="M1.10156 0H5.50879C6.1167 0 6.61035 0.501465 6.61035 1.11963V7.8374C6.61035 8.45508 6.1167 8.95703 5.50879 8.95703H1.10156C0.493652 8.95703 0 8.45508 0 7.8374V1.11963C0 0.501465 0.493652 0 1.10156 0ZM2.20312 6.71777H4.40674V2.23926H2.20312V6.71777Z" transform="translate(52.8845 48.957)" fill="white"/>
<path fill-rule="evenodd" clip-rule="evenodd" d="M1.10156 0H5.50879C6.1167 0 6.61035 0.501465 6.61035 1.11963V7.8374C6.61035 8.45508 6.1167 8.95703 5.50879 8.95703H1.10156C0.493652 8.95703 0 8.45508 0 7.8374V1.11963C0 0.501465 0.493652 0 1.10156 0ZM2.20312 6.71777H4.40674V2.23926H2.20312V6.71777Z" transform="translate(52.8845 35.8707)" fill="white"/>
<path d="M47.3756 0H1.10172C0.493597 0 0 0.501595 0 1.11957C0 1.73754 0.493597 2.23927 1.10172 2.23927H47.3756C47.9837 2.23927 48.4773 1.73767 48.4773 1.1197C48.4773 0.501726 47.9837 0 47.3756 0Z" transform="translate(8.81396 66.4055)" fill="white"/>
<path d="M14.3228 0C13.7147 0 13.2211 0.501595 13.2211 1.11957V2.23914H1.10172C0.493597 2.23914 0 2.74073 0 3.35871C0 3.97668 0.493597 4.47827 1.10172 4.47827H13.2211V41.4255C13.2211 42.0435 13.7147 42.5451 14.3228 42.5451C14.9309 42.5451 15.4245 42.0435 15.4245 41.4255V1.11944C15.4245 0.501595 14.9309 0 14.3228 0Z" transform="translate(51.1218 25.4019)" fill="white"/>
<path fill-rule="evenodd" clip-rule="evenodd" d="M1.10156 8.95703C0.493652 8.95703 0 8.45508 0 7.8374V1.11963C0 0.501465 0.493652 0 1.10156 0H5.50879C6.1167 0 6.61035 0.501465 6.61035 1.11963V7.8374C6.61035 8.45508 6.1167 8.95703 5.50879 8.95703H1.10156ZM4.40723 2.23926H2.20361V6.71777H4.40723V2.23926Z" transform="translate(35.2565 34.998)" fill="white"/>
<path fill-rule="evenodd" clip-rule="evenodd" d="M5.50879 0C10.9546 0 11.0176 14.4092 11.0176 14.5547C11.0176 17.2588 9.12158 19.5195 6.61035 20.04V25.751C6.61035 26.3691 6.1167 26.8706 5.50879 26.8706C4.90039 26.8706 4.40723 26.3691 4.40723 25.751V20.04C1.896 19.5195 0 17.2588 0 14.5547C0 14.4092 0.0629883 0 5.50879 0ZM2.20361 14.5552C2.20361 16.4067 3.68652 17.9141 5.50879 17.9141C7.33105 17.9141 8.81396 16.4067 8.81396 14.5552C8.81396 8.97705 7.33984 2.23926 5.50879 2.23926C3.67773 2.23926 2.20361 8.97705 2.20361 14.5552Z" transform="translate(0 41.1051)" fill="white"/>
<path d="M2.20343 34.7079V1.11957C2.20343 0.501595 1.70984 0 1.10172 0C0.493597 0 0 0.501595 0 1.11957V34.7079C0 35.3259 0.493597 35.8275 1.10172 35.8275C1.70984 35.8275 2.20343 35.3259 2.20343 34.7079Z" transform="translate(46.7146 23.6566)" fill="white"/>
<path fill-rule="evenodd" clip-rule="evenodd" d="M5.50879 8.95703H1.10156C0.493652 8.95703 0 8.45508 0 7.8374V1.11963C0 0.501465 0.493652 0 1.10156 0H5.50879C6.1167 0 6.61035 0.501465 6.61035 1.11963V7.8374C6.61035 8.45508 6.1167 8.95703 5.50879 8.95703ZM4.40723 2.23926H2.20361V6.71777H4.40723V2.23926Z" transform="translate(35.2565 21.0396)" fill="white"/>
<path d="M1.10172 14.5548C1.70984 14.5548 2.20343 14.0532 2.20343 13.4352V4.47827H14.3228C14.9309 4.47827 15.4245 3.97668 15.4245 3.35871C15.4245 2.74073 14.9309 2.23914 14.3228 2.23914H2.20356V1.11957C2.20356 0.501595 1.70996 0 1.10185 0C0.493726 0 0 0.501333 0 1.11944V13.4352C0 14.0532 0.493597 14.5548 1.10172 14.5548Z" transform="translate(0 25.4019)" fill="white"/>
</svg>


