<svg width="62" height="62" viewBox="0 0 62 62" fill="none" xmlns="http://www.w3.org/2000/svg">
<path d="M0.109009 5.49846C0.286551 5.84731 0.639753 6.04884 1.00495 6.04884C1.15745 6.04884 1.31394 6.01352 1.4595 5.93898C1.51864 5.90874 7.42432 2.89458 10.337 1.97019C10.8648 1.80185 11.1576 1.23528 10.9901 0.705101C10.8235 0.174802 10.2637 -0.120531 9.73096 0.0468638C6.66278 1.0217 0.797307 4.01566 0.548513 4.14265C0.0548057 4.39463 -0.141784 5.0016 0.109009 5.49846Z" transform="translate(35.0455 24.1066)" fill="white"/>
<path d="M1.00493 6.04884C1.15743 6.04884 1.31392 6.01352 1.45948 5.93898C1.51862 5.90874 7.4243 2.89458 10.3369 1.97019C10.8647 1.80185 11.1576 1.23528 10.9901 0.705101C10.8235 0.174802 10.2637 -0.120531 9.73094 0.0468638C6.66275 1.0217 0.797286 4.01566 0.548492 4.14265C0.0549016 4.39463 -0.141805 5.00148 0.108987 5.49846C0.286529 5.84719 0.639732 6.04884 1.00493 6.04884Z" transform="translate(35.0455 12.01)" fill="white"/>
<path d="M59.1964 15.1215C58.6415 15.1215 58.1931 15.5731 58.1931 16.1295V55.4442C58.1931 57.1115 56.8426 58.4684 55.1831 58.4684H31.1032V56.1488C32.5661 55.6347 36.3767 54.4361 40.1332 54.4361C48.8732 54.4361 54.8079 56.3807 54.867 56.4008C55.169 56.5016 55.5062 56.4513 55.77 56.2617C56.0319 56.0722 56.1864 55.7677 56.1864 55.4441V11.0893C56.1864 10.6165 55.8603 10.2072 55.4007 10.1053C55.4007 10.1053 54.6141 9.92896 53.2696 9.68089C52.7268 9.58012 52.2022 9.94302 52.1017 10.4894C52.0014 11.0378 52.3616 11.563 52.9064 11.6637C53.4192 11.7585 53.8486 11.8421 54.1797 11.9088V54.1044C51.9061 53.5056 46.8574 52.42 40.1331 52.42C35.7615 52.42 31.4674 53.8625 30.1389 54.3514C28.9579 53.8273 25.3881 52.42 21.0698 52.42C14.1588 52.42 8.46593 53.5652 6.01985 54.1468V11.8694C8.02349 11.3744 13.9412 10.0811 21.0698 10.0811C24.7279 10.0811 27.8653 11.2252 29.0964 11.7424V51.4119C29.0964 51.7748 29.291 52.1106 29.6051 52.289C29.9191 52.4684 30.3064 52.4633 30.6165 52.2758C30.7158 52.2164 40.6568 46.2506 49.48 43.296C49.8903 43.1579 50.1663 42.7738 50.1663 42.3393V1.00851C50.1663 0.677854 50.0047 0.368346 49.7338 0.179924C49.465 -0.00861614 49.1199 -0.0519709 48.8098 0.0640356C40.7822 3.08918 32.6594 8.16784 32.578 8.21828C32.1084 8.51361 31.965 9.13558 32.2589 9.60741C32.5519 10.0792 33.1709 10.2234 33.6415 9.92802C33.7157 9.88065 40.7822 5.4633 48.1596 2.48245V41.6177C41.3108 44.0088 34.1601 47.9131 31.103 49.661V11.0893C31.103 10.7072 30.8883 10.3584 30.5481 10.1871C30.3755 10.1014 26.264 8.06506 21.0698 8.06506C12.0037 8.06506 5.03361 10.0359 4.74061 10.1205C4.31015 10.2434 4.01315 10.6397 4.01315 11.0893V55.4443C4.01315 55.7598 4.16165 56.0582 4.41151 56.2488C4.58811 56.3829 4.8008 56.4524 5.01656 56.4524C5.10886 56.4524 5.20116 56.4393 5.29146 56.4131C5.36071 56.394 12.2987 54.4363 21.0698 54.4363C24.7379 54.4363 27.8723 55.5835 29.0964 56.0985V58.4685H5.01656C3.35707 58.4685 2.00658 57.1116 2.00658 55.4443V16.1296C2.00658 15.5732 1.55708 15.1216 1.00329 15.1216C0.449499 15.1216 0 15.5732 0 16.1296V55.4443C0 58.2235 2.25043 60.4847 5.01668 60.4847H55.1831C57.9492 60.4847 60.1998 58.2236 60.1998 55.4443V16.1296C60.1997 15.5731 59.7512 15.1215 59.1964 15.1215Z" transform="translate(0.933105 0.920898)" fill="white"/>
<path d="M0.109009 5.49846C0.286551 5.84731 0.639753 6.04884 1.00495 6.04884C1.15745 6.04884 1.31394 6.01352 1.4595 5.93898C1.51864 5.90874 7.42432 2.89458 10.337 1.97019C10.8648 1.80185 11.1576 1.23528 10.9901 0.705101C10.8235 0.174802 10.2637 -0.120531 9.73096 0.0468638C6.66278 1.0217 0.797307 4.01566 0.548513 4.14265C0.0548057 4.39463 -0.141784 5.0016 0.109009 5.49846Z" transform="translate(35.0455 18.0583)" fill="white"/>
<path d="M0.109009 5.49846C0.286551 5.84731 0.639753 6.04884 1.00495 6.04884C1.15745 6.04884 1.31394 6.01352 1.4595 5.93898C1.51864 5.90874 7.42432 2.89458 10.337 1.97019C10.8648 1.80185 11.1576 1.23528 10.9901 0.705101C10.8235 0.174802 10.2637 -0.120531 9.73096 0.0468638C6.66278 1.0217 0.797307 4.01566 0.548513 4.14265C0.0548057 4.39463 -0.141784 5.0016 0.109009 5.49846Z" transform="translate(35.0455 30.1548)" fill="white"/>
<path d="M14.2756 0.557766C8.08013 -0.902948 1.03971 0.958 0.743766 1.03762C0.209023 1.18174 -0.109024 1.73413 0.0344208 2.27247C0.15482 2.72302 0.56011 3.01942 1.00267 3.01942C1.08897 3.01942 1.17622 3.00832 1.26358 2.98516C1.33083 2.96602 8.10929 1.17466 13.8183 2.52043C14.355 2.64647 14.8979 2.31074 15.0243 1.76839C15.1505 1.22711 14.8154 0.684759 14.2756 0.557766Z" transform="translate(10.9661 19.0716)" fill="white"/>
<path d="M14.2756 0.557303C8.08013 -0.902348 1.03971 0.957537 0.743766 1.03716C0.209023 1.18128 -0.109024 1.73379 0.0344208 2.272C0.15482 2.72256 0.56011 3.01896 1.00267 3.01896C1.08897 3.01896 1.17622 3.00785 1.26358 2.9847C1.33083 2.96556 8.10929 1.17419 13.8183 2.51996C14.355 2.64601 14.8979 2.31028 15.0243 1.76793C15.1505 1.22664 14.8154 0.684296 14.2756 0.557303Z" transform="translate(10.9661 25.1204)" fill="white"/>
<path d="M0.109009 5.49845C0.286551 5.8473 0.639753 6.04883 1.00495 6.04883C1.15745 6.04883 1.31394 6.01351 1.4595 5.93897C1.51864 5.90873 7.42432 2.89457 10.337 1.97018C10.8648 1.80184 11.1576 1.23527 10.9901 0.70509C10.8235 0.17491 10.2637 -0.120541 9.73096 0.0468535C6.66278 1.02169 0.797307 4.01565 0.548513 4.14264C0.0548057 4.39462 -0.141784 5.00159 0.109009 5.49845Z" transform="translate(35.0455 36.2031)" fill="white"/>
<path d="M14.2756 0.557483C8.08013 -0.902168 1.03971 0.956654 0.743766 1.03734C0.209023 1.18146 -0.109024 1.73397 0.0344208 2.27218C0.15482 2.72274 0.56011 3.0202 1.00267 3.0202C1.08897 3.0202 1.17622 3.00815 1.26358 2.98488C1.33083 2.96574 8.10929 1.17437 13.8183 2.52014C14.355 2.64619 14.8979 2.31046 15.0243 1.76811C15.1505 1.22682 14.8154 0.684476 14.2756 0.557483Z" transform="translate(10.9661 31.1686)" fill="white"/>
<path d="M14.2756 0.557766C8.08013 -0.902948 1.03971 0.958 0.743766 1.03762C0.209023 1.18174 -0.109024 1.73425 0.0344208 2.27247C0.15482 2.72302 0.56011 3.02048 1.00267 3.02048C1.08897 3.02048 1.17622 3.00843 1.26358 2.98516C1.33083 2.96602 8.10929 1.17466 13.8183 2.52043C14.355 2.64541 14.8979 2.31074 15.0243 1.76839C15.1505 1.22711 14.8154 0.684759 14.2756 0.557766Z" transform="translate(10.9661 43.2651)" fill="white"/>
<path d="M14.2756 0.557946C8.08013 -0.902768 1.03971 0.957117 0.743766 1.0378C0.209023 1.18192 -0.109024 1.73443 0.0344208 2.27265C0.15482 2.7232 0.56011 3.02066 1.00267 3.02066C1.08897 3.02066 1.17622 3.00861 1.26358 2.98534C1.33083 2.9662 8.10929 1.17484 13.8183 2.52061C14.355 2.64665 14.8979 2.31092 15.0243 1.76857C15.1505 1.22729 14.8154 0.684939 14.2756 0.557946Z" transform="translate(10.9661 37.2164)" fill="white"/>
</svg>
