<svg width="44" height="51" viewBox="0 0 44 51" fill="none" xmlns="http://www.w3.org/2000/svg">
<path d="M0.825791 1.64858H5.78073C6.23655 1.64858 6.60652 1.27928 6.60652 0.824292C6.60652 0.369304 6.23655 0 5.78073 0H0.825791C0.369975 0 0 0.369304 0 0.824292C0 1.27928 0.369975 1.64858 0.825791 1.64858Z" transform="translate(17.0858 22.2264)" fill="white"/>
<path d="M42.117 6.59463H17.3423C16.8865 6.59463 16.5165 6.96393 16.5165 7.41892C16.5165 7.87391 16.8865 8.24321 17.3423 8.24321H41.2912V45.3378C41.2912 46.6551 40.1334 47.8108 38.8137 47.8108H4.12915C2.80951 47.8108 1.65168 46.6551 1.65168 45.3378V7.48731C2.18269 7.84502 2.76983 8.05523 3.30336 8.15917V45.3378C3.30336 45.7928 3.67333 46.1621 4.12915 46.1621C4.58496 46.1621 4.95494 45.7928 4.95494 45.3378V7.41892C4.95494 6.96722 4.58584 6.59955 4.13321 6.59463C3.71862 6.5897 1.65158 6.44876 1.65158 4.12165V3.29736C1.65158 2.38816 2.39231 1.64868 3.30326 1.64868H42.117C42.5728 1.64868 42.9428 1.27938 42.9428 0.824389C42.9428 0.3694 42.5729 0 42.117 0H3.30336C1.48155 0 0 1.47886 0 3.29727V45.3378C0 47.5718 1.8912 49.4595 4.12915 49.4595H38.8137C41.0517 49.4595 42.9429 47.5718 42.9429 45.3378V7.41892C42.9429 6.96393 42.5729 6.59463 42.117 6.59463Z" transform="translate(0.569336 0.793945)" fill="white"/>
<path d="M37.9878 0.824292C37.9878 0.369304 37.6179 0 37.162 0H10.7357C10.2799 0 9.90988 0.369304 9.90988 0.824292V8.72631L8.01626 6.83603C7.69332 6.51368 7.1714 6.51368 6.84856 6.83603L4.95494 8.72621V0.824292C4.95494 0.369304 4.58496 0 4.12915 0H0.825791C0.369975 0 0 0.369304 0 0.824292C0 1.27928 0.369975 1.64858 0.825791 1.64858H3.30326V10.7162C3.30326 11.0493 3.50475 11.3501 3.81279 11.4779C4.1216 11.6048 4.4759 11.5348 4.7129 11.299L7.43231 8.5845L10.1517 11.299C10.3095 11.4564 10.5208 11.5405 10.7356 11.5405C10.8421 11.5405 10.9494 11.5199 11.0518 11.4778C11.3599 11.35 11.5614 11.0492 11.5614 10.7161V1.64858H37.1619C37.6179 1.64858 37.9878 1.27928 37.9878 0.824292Z" transform="translate(3.8725 4.09125)" fill="white"/>
<path fill-rule="evenodd" clip-rule="evenodd" d="M0 14.0137V0.824219C0 0.369141 0.369873 0 0.825684 0H18.9939C19.4497 0 19.8196 0.369141 19.8196 0.824219V14.0137C19.8196 14.4683 19.4497 14.8379 18.9939 14.8379H0.825684C0.369873 14.8379 0 14.4683 0 14.0137ZM18.1682 1.64844H1.65161V13.189H18.1682V1.64844Z" transform="translate(12.1309 17.2806)" fill="white"/>
<path d="M9.08399 0H0.825791C0.369975 0 0 0.369304 0 0.824292C0 1.27928 0.369975 1.64858 0.825791 1.64858H9.08399C9.53981 1.64858 9.90978 1.27928 9.90978 0.824292C9.90978 0.369304 9.53981 0 9.08399 0Z" transform="translate(17.0858 25.5237)" fill="white"/>
</svg>
