<svg width="30" height="59" viewBox="0 0 30 59" fill="none" xmlns="http://www.w3.org/2000/svg">
<path d="M30 15C30 6.729 23.271 0 15 0C6.729 0 0 6.729 0 15C0 22.934 6.195 29.431 14 29.949V58C14 58.553 14.448 59 15 59C15.552 59 16 58.553 16 58V29.949C23.805 29.431 30 22.934 30 15ZM15 28C7.832 28 2 22.168 2 15C2 7.832 7.832 2 15 2C22.168 2 28 7.832 28 15C28 22.168 22.168 28 15 28Z" fill="#007CC4"/>
<path d="M10 7C7.794 7 6 8.794 6 11C6 13.206 7.794 15 10 15C12.206 15 14 13.206 14 11C14 8.794 12.206 7 10 7ZM10 13C8.897 13 8 12.103 8 11C8 9.897 8.897 9 10 9C11.103 9 12 9.897 12 11C12 12.103 11.103 13 10 13Z" fill="#007CC4"/>
</svg>
