<svg width="194" height="30" fill="none" xmlns="http://www.w3.org/2000/svg"><path fill-rule="evenodd" clip-rule="evenodd" d="M.145.12h4.918c.044 1.55.102 3.1.145 4.65.043-.1.101-.184.145-.283C6.22 3.036 7.089 1.571 7.957.12h5.497c-1.259 2.255-2.503 4.51-3.761 6.764l4.34 10.144c.477.183.97.38 1.447.564v1.832c-.044.098-.102.183-.145.282-9.273.056-6.235-6.58-10.272-10.709H4.92c.043 3.424.101 6.862.144 10.286H0C.043 12.899.101 6.502.145.119zm38.047 28.602c.044-.705.102-1.409.145-2.114 3.95-.323 5.18-2.916 5.063-7.185-1.273.042-4.21.352-4.918-.282C36.992 12.8 35.487 6.46 33.997.119c1.88.043 3.761.099 5.642.141l3.906 16.908c.101-.042.188-.098.29-.14L46.438.118h2.46c-.97 5.918-1.924 11.836-2.894 17.754-.564 2.818-.361 6.129-1.735 8.172-1.057 1.578-3.56 2.578-6.077 2.677zM52.37.119h4.05c-.882 1.846-3.124 5.453-5.786 4.932-.101-.282-.188-.564-.29-.846 1.129-.817 1.997-2.198 2.026-4.086zm10.85 0c-.014 1.367-1.2 3.931-1.157 3.946 1.056 1.042 2.27 1.76 2.748 3.381 1.317 4.509-4.99 10.962-7.378 12.681-2.994-1.536-4.513-3.776-6.8-5.918l.29-.281c.39-.423.767-.846 1.157-1.269h.29c.463.677 1.693 2.058 2.315 1.691 2.14-.958 6.003-5.128 5.497-8.031-1.317-.55-3.646-.113-5.063-.423.043-.662.1-1.31.144-1.972 1.505-.057 2.026-.508 2.749-1.268.043-1.142-.101-1.846-.434-2.537h5.642zm9.114 7.045c2.893.043 5.787.099 8.68.141-.043.705-.101 1.41-.144 2.114-3.14.098-6.265.183-9.404.282-.101 4.297 1.75 6.608 4.919 7.75h.144c.218-2.551 2.2-6.088 4.485-6.623.246.282.478.563.724.845-.536 1.451-1.057 2.917-1.592 4.368v3.663c-8.26 1-15.899-4.607-13.454-13.385.723-2.578 2.228-4.312 3.617-6.2 3.182.043 6.365.099 9.548.141.622.564 1.258 1.127 1.88 1.691l-.578.564c-.246.281-.478.563-.724.845-1.345-.747-2.705-1.508-4.05-2.254-1.49 1.465-3.776 3.55-4.05 6.058zM85.064.12h5.354v6.34c.766-.661 1.548-1.31 2.314-1.972.767.663 1.548 1.31 2.315 1.973V.12h5.208v19.162h-5.208c-.043-3.565-.101-7.144-.145-10.709l-.578.564-1.592 1.127c-.766-.662-1.548-1.31-2.314-1.972v10.99h-5.353V.119zm18.374 0h5.063v17.19c1.49-.042 2.995-.099 4.485-.14 1.475-6.567-5.237-10.174-1.013-17.05h2.604c.015 3.917 1.519 5.538 2.315 8.313.926 3.213-1.157 6.736-2.17 8.877h4.485c.043-5.735.101-11.455.144-17.19h5.208c-.043 6.383-.101 12.78-.144 19.163h-20.977V.119zm34.431 19.163h-4.919c-.043-6.299-.101-12.583-.145-18.88-.289.239-.578.464-.868.704-.81 1.676-2.676 2.775-4.05 3.945-.145-.099-.29-.183-.434-.282-.145-.24-.29-.465-.434-.704.622-1.31 1.258-2.635 1.88-3.946h13.02c.42 1.762 1.519 2.55 1.881 4.086l-.868.846-.289-.282c-1.895-.888-2.937-3.086-4.485-4.368-.101.042-.188.099-.289.141v18.74zm20.687-12.118V9.42c-3.139.098-6.264.183-9.403.282-.116 4.34 1.75 6.594 4.919 7.75h.144c.261-2.875 2.156-5.285 4.051-6.623.665.183.81.394 1.157.845-.535 1.451-1.056 2.917-1.591 4.368v3.663c-8.405 1.31-16.015-4.762-13.454-13.667.694-2.437 2.199-4.072 3.472-5.918h9.693c.593.677 1.794 1.395 1.446 2.114-.275.718-.752 1.141-1.302.845-1.258-.662-2.502-1.31-3.761-1.972-1.476 1.902-3.024 3.339-4.051 5.777.044.098.101.183.145.281h8.535zM178.81.12h5.353v6.34c.766-.661 1.548-1.31 2.314-1.972.767.663 1.548 1.31 2.315 1.973V.12H194v19.162h-5.208c-.043-3.565-.101-7.144-.145-10.709l-.578.564-1.592 1.127c-.766-.662-1.548-1.31-2.314-1.972v10.99h-5.353V.119z" fill="#fff"/><path fill-rule="evenodd" clip-rule="evenodd" d="M29.657.596c-2.213-.987-7.161-.324-9.982-.282-3.053 4.748-2.46 11.13-2.46 18.88 0 3.903.492 7.229-2.893 7.89-.043.607-.101 1.227-.144 1.832.1.043.188.1.289.141 5.57-1.62 8.318-4.1 8.246-11.13.911.52 1.837 1.028 2.749 1.55 3.906-2.17 8.405-7.595 6.51-14.373-.767-1.507-1.548-3-2.315-4.508zm-3.443 15.978s-2.821-.62-2.85-1.536c-.087-2.452-.116-12.752.058-12.977.159-.225.52-.493.52-.493s3.43 1.747 3.921 6.228c.477 4.508-1.65 8.778-1.65 8.778zM173.891 3.224c-.492-1.1-.868-2.114-1.736-2.819-.752-.662-8.116-.324-9.837-.281-3.038 4.72-2.46 11.032-2.46 18.74 0 3.945.55 7.368-2.893 8.03-.043.564-.101 1.128-.145 1.692.044.098.102.183.145.281 5.787-.704 8.521-4.509 8.391-10.99.969.465 1.924.944 2.893 1.41 4.485-2.974 8.767-9.089 5.642-16.063zm-5.078 13.174s-2.821-.62-2.85-1.536c-.086-2.452-.115-12.752.058-12.977.159-.225.521-.493.521-.493s3.429 1.747 3.921 6.228c.477 4.508-1.65 8.778-1.65 8.778z" fill="#fff"/></svg>