<svg width="60" height="60" viewBox="0 0 60 60" fill="none" xmlns="http://www.w3.org/2000/svg">
<path d="M58.4954 20.0066L39.9911 1.50214C37.9882 -0.500713 34.7292 -0.500713 32.7264 1.50214L3.84832 30.3803C2.84695 31.3818 2.34621 32.6972 2.34621 34.0126C2.34621 35.3281 2.84695 36.6435 3.84832 37.645L8.49117 42.2878L3.39316 47.3858C3.1643 47.6147 3.04992 47.9146 3.04992 48.2145C3.04992 48.5144 3.1643 48.8142 3.39316 49.0431C3.85078 49.5007 4.59281 49.5008 5.05043 49.0431L10.1484 43.9451L12.2718 46.0685L0.343242 57.9972C0.114375 58.2259 0 58.5259 0 58.8258C0 59.1257 0.114375 59.4257 0.343242 59.6544C0.800859 60.1121 1.54289 60.1121 2.00063 59.6544L13.9293 47.7258L22.3527 56.1494C24.3557 58.1521 27.6145 58.1521 29.6174 56.1494L58.4954 27.2712C59.4656 26.3011 60 25.011 60 23.639C60 22.2668 59.4656 20.9768 58.4954 20.0066ZM25.1336 55.1746C24.7225 55.0437 24.3354 54.8176 24.0098 54.4921L5.50559 35.9877C4.77539 35.2574 4.53727 34.2207 4.78629 33.2882H25.1336V55.1746ZM20.8976 30.9444L24.3725 27.4695C24.8302 27.0119 24.8303 26.2698 24.3725 25.8122C23.9148 25.3546 23.1729 25.3545 22.7153 25.8122L17.5829 30.9444H14.1687L24.7631 20.35C25.2206 19.8924 25.2207 19.1503 24.7631 18.6926C24.3055 18.235 23.5635 18.235 23.1057 18.6926L10.8541 30.9444H6.59883L33.2905 4.25265V28.1513C33.2905 29.6915 32.0375 30.9444 30.4973 30.9444H20.8976ZM56.8383 25.6141L27.9601 54.4921C27.8112 54.641 27.6485 54.7677 27.4774 54.876V33.2882H30.4975C33.3299 33.2882 35.6344 30.9838 35.6344 28.1513V25.1312H49.0669L42.2856 31.9126C42.0568 32.1414 41.9423 32.4414 41.9423 32.7413C41.9423 33.0413 42.0567 33.341 42.2856 33.5699C42.7432 34.0275 43.4852 34.0275 43.943 33.5699L52.3807 25.1322C52.3809 25.1319 52.3812 25.1316 52.3814 25.1314H57.2245C57.115 25.304 56.9864 25.466 56.8383 25.6141ZM35.6343 22.7875V2.44022C36.5668 2.1912 37.6036 2.42933 38.3338 3.15952L56.8382 21.6639C57.1583 21.9839 57.3905 22.3682 57.5241 22.7875H35.6343Z" fill="#007CC4"/>
<path d="M27.6317 15.825C27.4138 15.6059 27.1114 15.4817 26.8032 15.4817C26.4938 15.4817 26.1927 15.6059 25.9747 15.825C25.7567 16.043 25.6313 16.3442 25.6313 16.6535C25.6313 16.9617 25.7567 17.2641 25.9747 17.4821C26.1927 17.7 26.4938 17.8254 26.8032 17.8254C27.1114 17.8254 27.4138 17.7 27.6317 17.4821C27.8497 17.2641 27.9751 16.9617 27.9751 16.6535C27.9751 16.3442 27.8497 16.043 27.6317 15.825Z" fill="#007CC4"/>
<path d="M2.00527 50.4305C1.7873 50.2125 1.48496 50.0872 1.17676 50.0872C0.868555 50.0872 0.566211 50.2125 0.348242 50.4305C0.130273 50.6485 0.00488281 50.9508 0.00488281 51.259C0.00488281 51.5672 0.130273 51.8696 0.348242 52.0875C0.566211 52.3055 0.868555 52.4309 1.17676 52.4309C1.48613 52.4309 1.7873 52.3055 2.00527 52.0875C2.22441 51.8696 2.34863 51.5672 2.34863 51.259C2.34863 50.9508 2.22441 50.6485 2.00527 50.4305Z" fill="#007CC4"/>
<path d="M14.8848 52.6743C14.4271 52.2167 13.6851 52.2167 13.2274 52.6743L7.90525 57.9965C7.6765 58.2252 7.56201 58.5252 7.56201 58.8251C7.56201 59.125 7.67639 59.425 7.90525 59.6539C8.36299 60.1115 9.10502 60.1115 9.56264 59.6539L14.8848 54.3317C15.3423 53.8739 15.3423 53.1319 14.8848 52.6743Z" fill="#007CC4"/>
</svg>
