<svg xmlns="http://www.w3.org/2000/svg" xmlns:xlink="http://www.w3.org/1999/xlink" width="70" height="150" viewBox="0 0 70 150">
    <g width="51" height="56" viewBox="0 0 51 56" fill="none" xmlns="http://www.w3.org/2000/svg" transform="translate(0, 80)">
        <path d="M2.50051 0H0.833471C0.373416 0 0 0.406769 0 0.907916C0 1.40906 0.373416 1.81583 0.833471 1.81583H2.50051C2.96057 1.81583 3.33398 1.40906 3.33398 0.907916C3.33398 0.406769 2.96066 0 2.50051 0Z" transform="translate(34.0581 18.715)" fill="white"/>
        <path d="M2.50051 0H0.833471C0.373416 0 0 0.406769 0 0.907916C0 1.40906 0.373416 1.81583 0.833471 1.81583H2.50051C2.96057 1.81583 3.33398 1.40906 3.33398 0.907916C3.33408 0.406769 2.96066 0 2.50051 0Z" transform="translate(34.0581 22.3468)" fill="white"/>
        <path d="M2.50051 0H0.833471C0.373416 0 0 0.406769 0 0.907916C0 1.40906 0.373416 1.81583 0.833471 1.81583H2.50051C2.96057 1.81583 3.33398 1.40906 3.33398 0.907916C3.33408 0.406769 2.96066 0 2.50051 0Z" transform="translate(34.0581 15.0828)" fill="white"/>
        <path d="M2.50051 0H0.833471C0.373416 0 0 0.406769 0 0.907916C0 1.40906 0.373416 1.81583 0.833471 1.81583H2.50051C2.96057 1.81583 3.33398 1.40906 3.33398 0.907916C3.33398 0.406769 2.96066 0 2.50051 0Z" transform="translate(34.0581 44.1373)" fill="white"/>
        <path fill-rule="evenodd" clip-rule="evenodd" d="M0.833496 0H5.83447C6.29443 0 6.66797 0.406738 6.66797 0.908203V13.6191C6.66797 14.1206 6.29443 14.5273 5.83447 14.5273H0.833496C0.373535 14.5273 0 14.1206 0 13.6191V0.907715C0 0.406738 0.373535 0 0.833496 0ZM1.66675 12.7114H5.00073V1.81592H1.66675V12.7114Z" transform="translate(12.3871 15.0828)" fill="white"/>
        <path d="M5.83449 0H0.833471C0.373416 0 0 0.406769 0 0.907916C0 1.40906 0.373416 1.81583 0.833471 1.81583H5.83449C6.29455 1.81583 6.66796 1.40906 6.66796 0.907916C6.66796 0.406769 6.29455 0 5.83449 0Z" transform="translate(12.3871 44.1373)" fill="white"/>
        <path d="M5.83449 0H0.833471C0.373416 0 0 0.406769 0 0.907916C0 1.40906 0.373416 1.81583 0.833471 1.81583H5.83449C6.29455 1.81583 6.66796 1.40906 6.66796 0.907916C6.66796 0.406769 6.29455 0 5.83449 0Z" transform="translate(12.3871 47.769)" fill="white"/>
        <path d="M2.50051 0H0.833471C0.373416 0 0 0.406769 0 0.907916C0 1.40906 0.373416 1.81583 0.833471 1.81583H2.50051C2.96057 1.81583 3.33398 1.40906 3.33398 0.907916C3.33408 0.406769 2.96066 0 2.50051 0Z" transform="translate(34.0581 47.769)" fill="white"/>
        <path d="M4.16745 0H0.833471C0.373416 0 0 0.406769 0 0.907916C0 1.40906 0.373416 1.81583 0.833471 1.81583H4.16745C4.62751 1.81583 5.00092 1.40906 5.00092 0.907916C5.00102 0.406769 4.6276 0 4.16745 0Z" transform="translate(42.3931 47.769)" fill="white"/>
        <path fill-rule="evenodd" clip-rule="evenodd" d="M4.16748 0C4.62744 0 5.00098 0.406738 5.00098 0.907715V13.6191C5.00098 14.1206 4.62744 14.5273 4.16748 14.5273H0.833496C0.373535 14.5273 0 14.1206 0 13.6191V0.907715C0 0.406738 0.373535 0 0.833496 0H4.16748ZM1.66724 12.7109H3.33423V1.81543H1.66724V12.7109Z" transform="translate(24.0563 15.0833)" fill="white"/>
        <path d="M4.16745 0H0.833471C0.373416 0 0 0.406769 0 0.907916C0 1.40906 0.373416 1.81583 0.833471 1.81583H4.16745C4.62751 1.81583 5.00092 1.40906 5.00092 0.907916C5.00092 0.406769 4.6276 0 4.16745 0Z" transform="translate(42.3931 44.1373)" fill="white"/>
        <path d="M4.16745 0H0.833471C0.373416 0 0 0.406769 0 0.907916C0 1.40906 0.373416 1.81583 0.833471 1.81583H4.16745C4.62751 1.81583 5.00092 1.40906 5.00092 0.907916C5.00092 0.406769 4.62751 0 4.16745 0Z" transform="translate(24.0563 47.769)" fill="white"/>
        <path d="M0.833471 10.8953C1.29353 10.8953 1.66694 10.4885 1.66694 9.9874V0.907916C1.66694 0.406769 1.29353 0 0.833471 0C0.373416 0 0 0.406769 0 0.907916V9.9874C0 10.4885 0.373416 10.8953 0.833471 10.8953Z" transform="translate(42.3931 22.3468)" fill="white"/>
        <path d="M1.66694 0.907916C1.66694 0.406769 1.29353 0 0.833471 0C0.373416 0 0 0.406769 0 0.907916V9.9874C0 10.4885 0.373416 10.8953 0.833471 10.8953C1.29353 10.8953 1.66694 10.4885 1.66694 9.9874V0.907916Z" transform="translate(45.7273 22.3468)" fill="white"/>
        <path fill-rule="evenodd" clip-rule="evenodd" d="M47.5098 7.26367H42.5088C42.0486 7.26367 41.6753 7.67041 41.6753 8.17139C41.6753 8.67285 42.0486 9.07959 42.5088 9.07959H47.5098C47.969 9.07959 48.3433 9.4873 48.3433 9.9873V51.7534C48.3433 52.2534 47.969 52.6611 47.5098 52.6611H40.0081V14.5273H45.0093C45.4692 14.5273 45.8428 14.1206 45.8428 13.6191C45.8428 13.1182 45.4692 12.7114 45.0093 12.7114H40.0081V4.53955C40.0081 3.0127 38.9097 1.81592 37.5076 1.81592H32.5066C31.1279 1.81592 30.0061 3.03809 30.0061 4.53955V52.6611H21.6711V5.44775H27.5056C27.9656 5.44775 28.3391 5.04102 28.3391 4.53955C28.3391 4.03857 27.9656 3.63184 27.5056 3.63184H21.6711V2.72363C21.6711 1.19678 20.5725 0 19.1707 0H10.8357C9.45703 0 8.33521 1.22217 8.33521 2.72363V10.8955H4.16748C3.70752 10.8955 3.33398 11.3022 3.33398 11.8032C3.33398 12.3047 3.70752 12.7114 4.16748 12.7114H8.33521V52.6611H2.50049C2.04126 52.6611 1.66699 52.2534 1.66699 51.7534V8.17139C1.66699 7.67139 2.04126 7.26367 2.50049 7.26367H5.83447C6.29443 7.26367 6.66797 6.85693 6.66797 6.35596C6.66797 5.85449 6.29468 5.44775 5.83447 5.44775H2.50049C1.12183 5.44775 0 6.66992 0 8.17139V51.7534C0 53.2549 1.12183 54.4771 2.50049 54.4771H47.5098C48.8884 54.4771 50.0103 53.2549 50.0103 51.7534V9.9873C50.0103 8.48584 48.8884 7.26367 47.5098 7.26367ZM20.0039 52.6611H10.002V7.26367H17.5034C17.9636 7.26367 18.3369 6.85693 18.3369 6.35547C18.3369 5.85449 17.9636 5.44775 17.5034 5.44775H10.002V2.72363C10.002 2.21436 10.3679 1.81592 10.8354 1.81592H19.1704C19.6455 1.81592 20.0039 2.20654 20.0039 2.72363V52.6611ZM31.6731 52.6606H38.3411V4.53906C38.3411 4.02197 37.9827 3.63135 37.5076 3.63135H32.5066C32.0391 3.63135 31.6731 4.02979 31.6731 4.53906V7.26318H35.8406C36.3008 7.26318 36.6741 7.66992 36.6741 8.1709C36.6741 8.67236 36.3008 9.0791 35.8406 9.0791H31.6731V52.6606Z" transform="translate(0.718018 0.555969)" fill="white"/>
        <path d="M2.50041 0H0.833471C0.373416 0 0 0.406769 0 0.907916C0 1.40906 0.373416 1.81583 0.833471 1.81583H2.50051C2.96057 1.81583 3.33398 1.40906 3.33398 0.907916C3.33398 0.406769 2.96057 0 2.50041 0Z" transform="translate(4.05188 44.1373)" fill="white"/>
        <path d="M2.50041 0H0.833471C0.373416 0 0 0.406769 0 0.907916C0 1.40906 0.373416 1.81583 0.833471 1.81583H2.50051C2.96057 1.81583 3.33398 1.40906 3.33398 0.907916C3.33398 0.406769 2.96057 0 2.50041 0Z" transform="translate(4.05188 47.769)" fill="white"/>
        <path d="M4.16745 0H0.833471C0.373416 0 0 0.406769 0 0.907916C0 1.40906 0.373416 1.81583 0.833471 1.81583H4.16745C4.62751 1.81583 5.00092 1.40906 5.00092 0.907916C5.00092 0.406769 4.62751 0 4.16745 0Z" transform="translate(24.0563 44.1373)" fill="white"/>
        <path d="M2.50041 0H0.833471C0.373416 0 0 0.406769 0 0.907916C0 1.40906 0.373416 1.81583 0.833471 1.81583H2.50051C2.96057 1.81583 3.33398 1.40906 3.33398 0.907916C3.33398 0.406769 2.96057 0 2.50041 0Z" transform="translate(4.05188 22.3468)" fill="white"/>
        <path d="M2.50041 0H0.833471C0.373416 0 0 0.406769 0 0.907916C0 1.40906 0.373318 1.81594 0.833471 1.81594H2.50051C2.96057 1.81594 3.33398 1.40917 3.33398 0.908022C3.33398 0.406876 2.96057 0 2.50041 0Z" transform="translate(4.05188 25.9786)" fill="white"/>
    </g>
    <g width="51" height="56" viewBox="0 0 51 56" fill="none" xmlns="http://www.w3.org/2000/svg">
        <path d="M2.50051 0H0.833471C0.373416 0 0 0.406769 0 0.907916C0 1.40906 0.373416 1.81583 0.833471 1.81583H2.50051C2.96057 1.81583 3.33398 1.40906 3.33398 0.907916C3.33398 0.406769 2.96066 0 2.50051 0Z" transform="translate(34.0581 18.715)" fill="#bdefff"/>
        <path d="M2.50051 0H0.833471C0.373416 0 0 0.406769 0 0.907916C0 1.40906 0.373416 1.81583 0.833471 1.81583H2.50051C2.96057 1.81583 3.33398 1.40906 3.33398 0.907916C3.33408 0.406769 2.96066 0 2.50051 0Z" transform="translate(34.0581 22.3468)" fill="#bdefff"/>
        <path d="M2.50051 0H0.833471C0.373416 0 0 0.406769 0 0.907916C0 1.40906 0.373416 1.81583 0.833471 1.81583H2.50051C2.96057 1.81583 3.33398 1.40906 3.33398 0.907916C3.33408 0.406769 2.96066 0 2.50051 0Z" transform="translate(34.0581 15.0828)" fill="#bdefff"/>
        <path d="M2.50051 0H0.833471C0.373416 0 0 0.406769 0 0.907916C0 1.40906 0.373416 1.81583 0.833471 1.81583H2.50051C2.96057 1.81583 3.33398 1.40906 3.33398 0.907916C3.33398 0.406769 2.96066 0 2.50051 0Z" transform="translate(34.0581 44.1373)" fill="#bdefff"/>
        <path fill-rule="evenodd" clip-rule="evenodd" d="M0.833496 0H5.83447C6.29443 0 6.66797 0.406738 6.66797 0.908203V13.6191C6.66797 14.1206 6.29443 14.5273 5.83447 14.5273H0.833496C0.373535 14.5273 0 14.1206 0 13.6191V0.907715C0 0.406738 0.373535 0 0.833496 0ZM1.66675 12.7114H5.00073V1.81592H1.66675V12.7114Z" transform="translate(12.3871 15.0828)" fill="#bdefff"/>
        <path d="M5.83449 0H0.833471C0.373416 0 0 0.406769 0 0.907916C0 1.40906 0.373416 1.81583 0.833471 1.81583H5.83449C6.29455 1.81583 6.66796 1.40906 6.66796 0.907916C6.66796 0.406769 6.29455 0 5.83449 0Z" transform="translate(12.3871 44.1373)" fill="#bdefff"/>
        <path d="M5.83449 0H0.833471C0.373416 0 0 0.406769 0 0.907916C0 1.40906 0.373416 1.81583 0.833471 1.81583H5.83449C6.29455 1.81583 6.66796 1.40906 6.66796 0.907916C6.66796 0.406769 6.29455 0 5.83449 0Z" transform="translate(12.3871 47.769)" fill="#bdefff"/>
        <path d="M2.50051 0H0.833471C0.373416 0 0 0.406769 0 0.907916C0 1.40906 0.373416 1.81583 0.833471 1.81583H2.50051C2.96057 1.81583 3.33398 1.40906 3.33398 0.907916C3.33408 0.406769 2.96066 0 2.50051 0Z" transform="translate(34.0581 47.769)" fill="#bdefff"/>
        <path d="M4.16745 0H0.833471C0.373416 0 0 0.406769 0 0.907916C0 1.40906 0.373416 1.81583 0.833471 1.81583H4.16745C4.62751 1.81583 5.00092 1.40906 5.00092 0.907916C5.00102 0.406769 4.6276 0 4.16745 0Z" transform="translate(42.3931 47.769)" fill="#bdefff"/>
        <path fill-rule="evenodd" clip-rule="evenodd" d="M4.16748 0C4.62744 0 5.00098 0.406738 5.00098 0.907715V13.6191C5.00098 14.1206 4.62744 14.5273 4.16748 14.5273H0.833496C0.373535 14.5273 0 14.1206 0 13.6191V0.907715C0 0.406738 0.373535 0 0.833496 0H4.16748ZM1.66724 12.7109H3.33423V1.81543H1.66724V12.7109Z" transform="translate(24.0563 15.0833)" fill="#bdefff"/>
        <path d="M4.16745 0H0.833471C0.373416 0 0 0.406769 0 0.907916C0 1.40906 0.373416 1.81583 0.833471 1.81583H4.16745C4.62751 1.81583 5.00092 1.40906 5.00092 0.907916C5.00092 0.406769 4.6276 0 4.16745 0Z" transform="translate(42.3931 44.1373)" fill="#bdefff"/>
        <path d="M4.16745 0H0.833471C0.373416 0 0 0.406769 0 0.907916C0 1.40906 0.373416 1.81583 0.833471 1.81583H4.16745C4.62751 1.81583 5.00092 1.40906 5.00092 0.907916C5.00092 0.406769 4.62751 0 4.16745 0Z" transform="translate(24.0563 47.769)" fill="#bdefff"/>
        <path d="M0.833471 10.8953C1.29353 10.8953 1.66694 10.4885 1.66694 9.9874V0.907916C1.66694 0.406769 1.29353 0 0.833471 0C0.373416 0 0 0.406769 0 0.907916V9.9874C0 10.4885 0.373416 10.8953 0.833471 10.8953Z" transform="translate(42.3931 22.3468)" fill="#bdefff"/>
        <path d="M1.66694 0.907916C1.66694 0.406769 1.29353 0 0.833471 0C0.373416 0 0 0.406769 0 0.907916V9.9874C0 10.4885 0.373416 10.8953 0.833471 10.8953C1.29353 10.8953 1.66694 10.4885 1.66694 9.9874V0.907916Z" transform="translate(45.7273 22.3468)" fill="#bdefff"/>
        <path fill-rule="evenodd" clip-rule="evenodd" d="M47.5098 7.26367H42.5088C42.0486 7.26367 41.6753 7.67041 41.6753 8.17139C41.6753 8.67285 42.0486 9.07959 42.5088 9.07959H47.5098C47.969 9.07959 48.3433 9.4873 48.3433 9.9873V51.7534C48.3433 52.2534 47.969 52.6611 47.5098 52.6611H40.0081V14.5273H45.0093C45.4692 14.5273 45.8428 14.1206 45.8428 13.6191C45.8428 13.1182 45.4692 12.7114 45.0093 12.7114H40.0081V4.53955C40.0081 3.0127 38.9097 1.81592 37.5076 1.81592H32.5066C31.1279 1.81592 30.0061 3.03809 30.0061 4.53955V52.6611H21.6711V5.44775H27.5056C27.9656 5.44775 28.3391 5.04102 28.3391 4.53955C28.3391 4.03857 27.9656 3.63184 27.5056 3.63184H21.6711V2.72363C21.6711 1.19678 20.5725 0 19.1707 0H10.8357C9.45703 0 8.33521 1.22217 8.33521 2.72363V10.8955H4.16748C3.70752 10.8955 3.33398 11.3022 3.33398 11.8032C3.33398 12.3047 3.70752 12.7114 4.16748 12.7114H8.33521V52.6611H2.50049C2.04126 52.6611 1.66699 52.2534 1.66699 51.7534V8.17139C1.66699 7.67139 2.04126 7.26367 2.50049 7.26367H5.83447C6.29443 7.26367 6.66797 6.85693 6.66797 6.35596C6.66797 5.85449 6.29468 5.44775 5.83447 5.44775H2.50049C1.12183 5.44775 0 6.66992 0 8.17139V51.7534C0 53.2549 1.12183 54.4771 2.50049 54.4771H47.5098C48.8884 54.4771 50.0103 53.2549 50.0103 51.7534V9.9873C50.0103 8.48584 48.8884 7.26367 47.5098 7.26367ZM20.0039 52.6611H10.002V7.26367H17.5034C17.9636 7.26367 18.3369 6.85693 18.3369 6.35547C18.3369 5.85449 17.9636 5.44775 17.5034 5.44775H10.002V2.72363C10.002 2.21436 10.3679 1.81592 10.8354 1.81592H19.1704C19.6455 1.81592 20.0039 2.20654 20.0039 2.72363V52.6611ZM31.6731 52.6606H38.3411V4.53906C38.3411 4.02197 37.9827 3.63135 37.5076 3.63135H32.5066C32.0391 3.63135 31.6731 4.02979 31.6731 4.53906V7.26318H35.8406C36.3008 7.26318 36.6741 7.66992 36.6741 8.1709C36.6741 8.67236 36.3008 9.0791 35.8406 9.0791H31.6731V52.6606Z" transform="translate(0.718018 0.555969)" fill="#bdefff"/>
        <path d="M2.50041 0H0.833471C0.373416 0 0 0.406769 0 0.907916C0 1.40906 0.373416 1.81583 0.833471 1.81583H2.50051C2.96057 1.81583 3.33398 1.40906 3.33398 0.907916C3.33398 0.406769 2.96057 0 2.50041 0Z" transform="translate(4.05188 44.1373)" fill="#bdefff"/>
        <path d="M2.50041 0H0.833471C0.373416 0 0 0.406769 0 0.907916C0 1.40906 0.373416 1.81583 0.833471 1.81583H2.50051C2.96057 1.81583 3.33398 1.40906 3.33398 0.907916C3.33398 0.406769 2.96057 0 2.50041 0Z" transform="translate(4.05188 47.769)" fill="#bdefff"/>
        <path d="M4.16745 0H0.833471C0.373416 0 0 0.406769 0 0.907916C0 1.40906 0.373416 1.81583 0.833471 1.81583H4.16745C4.62751 1.81583 5.00092 1.40906 5.00092 0.907916C5.00092 0.406769 4.62751 0 4.16745 0Z" transform="translate(24.0563 44.1373)" fill="#bdefff"/>
        <path d="M2.50041 0H0.833471C0.373416 0 0 0.406769 0 0.907916C0 1.40906 0.373416 1.81583 0.833471 1.81583H2.50051C2.96057 1.81583 3.33398 1.40906 3.33398 0.907916C3.33398 0.406769 2.96057 0 2.50041 0Z" transform="translate(4.05188 22.3468)" fill="#bdefff"/>
        <path d="M2.50041 0H0.833471C0.373416 0 0 0.406769 0 0.907916C0 1.40906 0.373318 1.81594 0.833471 1.81594H2.50051C2.96057 1.81594 3.33398 1.40917 3.33398 0.908022C3.33398 0.406876 2.96057 0 2.50041 0Z" transform="translate(4.05188 25.9786)" fill="#bdefff"/>
    </g>
</svg>
