<svg width="43" height="32" viewBox="0 0 43 32" fill="none" xmlns="http://www.w3.org/2000/svg">
<g opacity="0.8">
<path fill-rule="evenodd" clip-rule="evenodd" d="M5.1792 0H37.1826C40.0396 0 42.3618 2.3143 42.353 5.15062V26.8581C42.353 29.6944 40.0308 32 37.1738 32H5.1792C2.32227 32 0 29.6944 0 26.8581V5.14192C0 2.3056 2.32227 0 5.1792 0ZM37.1826 29.6509C38.7339 29.6509 39.9956 28.398 39.9956 26.8581H39.9868V5.15062C39.9868 3.61066 38.7251 2.3578 37.1738 2.3578H5.1792C3.62793 2.3578 2.36621 3.61066 2.36621 5.15062V26.8581C2.36621 28.398 3.62793 29.6509 5.1792 29.6509H37.1826Z" fill="#007CC4"/>
<path d="M22.0571 11.4834L32.5256 2.09456C33.0127 1.65169 33.057 0.898813 32.6142 0.4028C32.1714 -0.0843559 31.4186 -0.128643 30.9226 0.314226L16.4863 13.2726L13.6699 10.7571C13.6611 10.7482 13.6522 10.7394 13.6522 10.7305C13.5902 10.6685 13.5282 10.6154 13.4574 10.5622L1.99695 0.305369C1.50098 -0.1375 0.748172 -0.0932133 0.305342 0.4028C-0.137488 0.898813 -0.093205 1.65169 0.402764 2.09456L10.9953 11.5631L0.447047 21.4391C-0.0312089 21.8908 -0.0577787 22.6437 0.393908 23.1308C0.633036 23.3788 0.951873 23.5117 1.27071 23.5117C1.56298 23.5117 1.85525 23.4054 2.08552 23.1928L12.7931 13.1751L15.6981 15.7703C15.9284 15.9741 16.2118 16.0715 16.4952 16.0715C16.7786 16.0715 17.0709 15.9652 17.2923 15.7615L20.277 13.0866L30.9226 23.2017C31.1529 23.4231 31.454 23.5294 31.7463 23.5294C32.0651 23.5294 32.3751 23.4054 32.6142 23.1574C33.0659 22.6791 33.0482 21.9174 32.5699 21.4656L22.0571 11.4834Z" transform="translate(4.70593 4.70587)" fill="#007CC4"/>
</g>
</svg>
