<svg width="32" height="32" viewBox="0 0 32 32" fill="none" xmlns="http://www.w3.org/2000/svg">
<path fill-rule="evenodd" clip-rule="evenodd" d="M23.915 22.0343L31.6084 29.7273C32.1304 30.2433 32.1304 31.0922 31.6084 31.6082C31.0859 32.1306 30.2432 32.1306 29.7207 31.6082L22.0278 23.9216C19.7026 25.8286 16.7314 26.9714 13.4858 26.9714C6.03418 26.9714 0 20.9306 0 13.4857C0 6.04082 6.03418 0 13.4858 0C20.9307 0 26.9712 6.04082 26.9712 13.4857C26.9712 16.7314 25.8223 19.7094 23.915 22.0343ZM2.67773 13.4857C2.67773 19.4416 7.52344 24.2874 13.4858 24.2874C19.4419 24.2874 24.2939 19.4416 24.2939 13.4857C24.2939 7.5298 19.4419 2.67755 13.4858 2.67755C7.52344 2.67755 2.67773 7.5298 2.67773 13.4857Z" fill="white"/>
</svg>
