<svg width="60" height="66" viewBox="0 0 60 66" fill="none" xmlns="http://www.w3.org/2000/svg">
<path d="M48.7795 48.2752C48.5372 47.5766 48.2159 46.9081 47.8217 46.2825L47.7837 46.2254L47.4729 45.6923C47.2509 45.3179 47.0289 44.9435 46.7688 44.5373C46.3819 43.9408 46.0267 43.4267 45.6081 42.8238V42.7858L45.5701 42.735L45.5003 42.6398C43.737 40.1013 42.5002 38.3117 38.777 39.3969C38.2019 39.5764 37.6536 39.8324 37.147 40.1585C36.2717 40.6788 35.6882 41.0215 33.1194 37.8929C32.8593 37.5819 32.4851 37.0742 32.1553 36.5602C31.9073 36.1962 31.6828 35.8167 31.483 35.4242L31.4069 35.2592C31.349 35.1191 31.2811 34.9835 31.2039 34.8531L30.5062 33.1904C30.0506 31.8609 29.7984 30.4703 29.7578 29.0654C29.6671 28.2347 29.8237 27.3957 30.2081 26.6538C30.2753 26.5691 30.3545 26.4942 30.4428 26.4317C30.5734 26.3384 30.7138 26.2597 30.8614 26.1969C31.1114 26.1043 31.368 26.03 31.6289 25.9748C33.4238 25.5433 35.8784 24.9467 35.3139 20.8217C35.0986 19.2465 34.742 17.6939 34.2484 16.1827V16.1446L34.1152 15.7004C33.8721 14.8912 33.5776 14.0984 33.2336 13.3269L33.1828 13.2127C32.7578 12.2354 32.3519 11.3088 30.8804 10.725C27.1097 9.46877 23.0004 11.2697 21.3664 14.8944C21.0524 15.7391 20.8726 16.6277 20.8336 17.5281C20.796 18.2858 20.8152 19.0451 20.8907 19.8C21.3558 25.2853 22.5766 30.6798 24.5187 35.8304C26.2453 40.4329 28.7656 44.6966 31.965 48.4275C32.0602 48.5354 32.1363 48.6369 32.2187 48.7385C32.3012 48.84 32.4471 49.024 32.6056 49.2017L33.1638 49.8363L33.3223 50.014L33.3731 50.0711L36.3161 53.13L36.8489 53.6694C38.0032 54.8625 38.4536 55.3321 40.7813 55.3131C42.5135 55.2572 44.2127 54.8241 45.7603 54.0438C47.0933 53.4433 48.1652 52.3821 48.7795 51.0548C49.1116 50.1581 49.1116 49.1719 48.7795 48.2752ZM47.1113 50.4075C46.652 51.3198 45.8862 52.0408 44.9485 52.4446C43.6558 53.1002 42.236 53.4662 40.7877 53.5171C39.2401 53.5171 38.942 53.2188 38.1745 52.4256L37.6163 51.8544L34.6797 48.8019L34.5021 48.6115L33.9376 47.9769C33.8361 47.8627 33.7346 47.7358 33.6395 47.6152C33.5443 47.4946 33.4429 47.3613 33.3223 47.2217C30.239 43.655 27.8066 39.5737 26.1361 35.164C24.2591 30.1864 23.0767 24.9737 22.6223 19.6731C22.555 19.0047 22.5381 18.3323 22.5715 17.6613C22.6004 16.9523 22.7396 16.2523 22.9838 15.5861C24.2576 12.8855 27.3325 11.5454 30.1764 12.4511C30.8127 12.7378 31.2906 13.2903 31.483 13.9615L31.5337 14.0758C31.8524 14.7688 32.1279 15.481 32.3583 16.2081L32.4915 16.6586V16.7031C32.9567 18.1233 33.2943 19.5825 33.4999 21.0629C33.8424 23.5696 32.3075 23.9377 31.1849 24.236C30.8213 24.3112 30.4648 24.4175 30.1193 24.5533C29.8483 24.6708 29.591 24.8177 29.3518 24.9911C29.1124 25.1555 28.8988 25.3545 28.7176 25.5813C28.0681 26.6489 27.7769 27.8966 27.8867 29.1415C27.9512 30.7436 28.2571 32.3268 28.7937 33.8377V33.8758L29.5167 35.6019C29.5356 35.6525 29.5589 35.7014 29.5865 35.7479C29.6328 35.825 29.6731 35.9057 29.707 35.989L29.8085 36.2238C30.0451 36.6935 30.3121 37.147 30.6077 37.5819C30.9756 38.134 31.3815 38.6925 31.6859 39.0606C35.2442 43.395 36.3541 42.735 38.0286 41.7386C38.406 41.4932 38.813 41.2971 39.2401 41.1548C41.7137 40.4313 42.6397 41.7894 43.9654 43.6933L44.0351 43.7948L44.0668 43.8456V43.8836C44.4601 44.4485 44.7899 44.9244 45.1895 45.54C45.4305 45.9081 45.6462 46.2761 45.8555 46.6379L46.1726 47.1646L46.2107 47.2281C46.5609 47.7394 46.8524 48.2887 47.0796 48.8654C47.2675 49.3607 47.2766 49.9061 47.105 50.4075H47.1113Z" fill="#007CC4"/>
<path d="M58.7565 1.26923C57.9467 0.45613 56.8466 -0.000633955 55.6994 6.60404e-07H9.76572C7.3796 0.00698143 5.44699 1.94065 5.44001 4.32808V10.0396H4.01925C1.88764 9.95315 0.0896498 11.6119 0.00323083 13.7447C-0.0831881 15.8774 1.57463 17.6764 3.70624 17.7629C3.81058 17.7672 3.91492 17.7672 4.01925 17.7629H5.45904V29.1352H4.01925C1.88764 29.0487 0.0896498 30.7076 0.00323083 32.8402C-0.0831881 34.973 1.57479 36.772 3.70624 36.8585C3.81058 36.8627 3.91492 36.8627 4.01925 36.8585H5.45904V48.2308H4.01925C1.88764 48.1443 0.0896498 49.803 0.00323083 51.9358C-0.0831881 54.0686 1.57463 55.8676 3.70624 55.954C3.81058 55.9583 3.91492 55.9583 4.01925 55.954H5.45904V61.6656C5.46253 64.0481 7.38452 65.9826 9.76572 66H55.674C58.0601 65.993 59.9927 64.0593 59.9997 61.6719V4.35346C60.013 3.20068 59.5654 2.09027 58.7565 1.26923ZM3.73383 15.8654C2.65146 15.7781 1.84467 14.8295 1.93172 13.7466C2.0091 12.7846 2.77244 12.0209 3.73383 11.9435H8.97923C10.0616 12.0307 10.8684 12.9793 10.7813 14.0623C10.7038 15.0242 9.94062 15.788 8.97923 15.8654H3.73383ZM3.73383 34.9419C2.65146 34.8547 1.84467 33.9061 1.93172 32.8231C2.0091 31.8612 2.77244 31.0974 3.73383 31.02H8.97923C10.0616 31.1073 10.8684 32.0559 10.7813 33.1388C10.704 34.1007 9.94062 34.8645 8.97923 34.9419H3.73383ZM3.73383 54.0185C2.65146 53.9312 1.84467 52.9826 1.93172 51.8996C2.0091 50.9377 2.77244 50.174 3.73383 50.0965H8.97923C10.0616 50.1838 10.8684 51.1324 10.7813 52.2154C10.704 53.1773 9.94062 53.941 8.97923 54.0185H3.73383ZM58.2047 61.6338C58.2047 63.0359 57.0689 64.1723 55.6677 64.1723H9.76572C8.36446 64.1723 7.22865 63.0359 7.22865 61.6338V55.9223H8.64941C10.781 56.0088 12.579 54.3501 12.6654 52.2173C12.7519 50.0845 11.094 48.2855 8.96242 48.199C8.85808 48.1948 8.75374 48.1948 8.64941 48.199H7.27939V36.8648H8.70015C10.8318 36.9513 12.6298 35.2925 12.7162 33.1598C12.8026 31.027 11.1448 29.228 9.01316 29.1415C8.90882 29.1373 8.80449 29.1373 8.70015 29.1415H7.27939V17.7692H8.70015C10.8318 17.8557 12.6298 16.197 12.7162 14.0642C12.8026 11.9314 11.1448 10.1324 9.01316 10.046C8.90882 10.0417 8.80449 10.0417 8.70015 10.046H7.27939V4.33442C7.27939 2.9324 8.4152 1.79596 9.81646 1.79596H55.7247C57.126 1.79596 58.2618 2.9324 58.2618 4.33442L58.2047 61.6338Z" fill="#007CC4"/>
</svg>
